<?xml version="1.0" encoding="UTF-8" standalone="no"?>
<!-- Created with Inkscape (http://www.inkscape.org/) -->

<svg
   xmlns:dc="http://purl.org/dc/elements/1.1/"
   xmlns:cc="http://creativecommons.org/ns#"
   xmlns:rdf="http://www.w3.org/1999/02/22-rdf-syntax-ns#"
   xmlns:svg="http://www.w3.org/2000/svg"
   xmlns="http://www.w3.org/2000/svg"
   version="1.1"
   width="48"
   height="48"
   id="svg3030">
  <defs
     id="defs3032" />
  <metadata
     id="metadata3035">
    <rdf:RDF>
      <cc:Work
         rdf:about="">
        <dc:format>image/svg+xml</dc:format>
        <dc:type
           rdf:resource="http://purl.org/dc/dcmitype/StillImage" />
        <dc:title></dc:title>
      </cc:Work>
    </rdf:RDF>
  </metadata>
  <g
     id="layer1">
    <g
       id="text3038"
       style="font-size:55.33333206px;font-style:normal;font-variant:normal;font-weight:normal;font-stretch:normal;line-height:125%;letter-spacing:0px;word-spacing:0px;fill:#000000;fill-opacity:1;stroke:none;font-family:FontAwesome;-inkscape-font-specification:FontAwesome">
      <path
         d="m 47.714285,2.2619028 c 0,-1.0807281 -0.895463,-1.97619042 -1.976191,-1.97619042 l -15.809523,0 c -1.080728,0 -1.97619,0.89546232 -1.97619,1.97619042 l 0,43.4761892 c 0,1.080728 0.895462,1.976191 1.97619,1.976191 l 15.809523,0 c 1.080728,0 1.976191,-0.895463 1.976191,-1.976191 l 0,-43.4761892 m -27.666666,0 c 0,-1.0807281 -0.895463,-1.97619042 -1.976191,-1.97619042 l -15.8095231,0 c -1.0807281,0 -1.97619042,0.89546232 -1.97619042,1.97619042 l 0,43.4761892 c 0,1.080728 0.89546232,1.976191 1.97619042,1.976191 l 15.8095231,0 c 1.080728,0 1.976191,-0.895463 1.976191,-1.976191 l 0,-43.4761892"
         id="path3062" />
    </g>
  </g>
</svg>
