<?xml version="1.0" encoding="UTF-8" standalone="no"?>
<!-- Created with Inkscape (http://www.inkscape.org/) -->

<svg
   xmlns:dc="http://purl.org/dc/elements/1.1/"
   xmlns:cc="http://creativecommons.org/ns#"
   xmlns:rdf="http://www.w3.org/1999/02/22-rdf-syntax-ns#"
   xmlns:svg="http://www.w3.org/2000/svg"
   xmlns="http://www.w3.org/2000/svg"
   xmlns:sodipodi="http://sodipodi.sourceforge.net/DTD/sodipodi-0.dtd"
   xmlns:inkscape="http://www.inkscape.org/namespaces/inkscape"
   width="32px"
   height="32px"
   id="svg2985"
   version="1.1"
   inkscape:version="0.48.4 r9939"
   sodipodi:docname="select_atoms.svg">
  <defs
     id="defs2987" />
  <sodipodi:namedview
     id="base"
     pagecolor="#ffffff"
     bordercolor="#666666"
     borderopacity="1.0"
     inkscape:pageopacity="0.0"
     inkscape:pageshadow="2"
     inkscape:zoom="8"
     inkscape:cx="2.4572755"
     inkscape:cy="11.56763"
     inkscape:current-layer="layer1"
     showgrid="true"
     inkscape:grid-bbox="true"
     inkscape:document-units="px"
     inkscape:window-width="1855"
     inkscape:window-height="1056"
     inkscape:window-x="65"
     inkscape:window-y="24"
     inkscape:window-maximized="1" />
  <metadata
     id="metadata2990">
    <rdf:RDF>
      <cc:Work
         rdf:about="">
        <dc:format>image/svg+xml</dc:format>
        <dc:type
           rdf:resource="http://purl.org/dc/dcmitype/StillImage" />
        <dc:title></dc:title>
      </cc:Work>
    </rdf:RDF>
  </metadata>
  <g
     id="layer1"
     inkscape:label="Layer 1"
     inkscape:groupmode="layer">
    <g
       id="g3037"
       transform="matrix(1.1332303,0,0,1.1332303,1.5336939,4.0608959)">
      <path
         transform="matrix(0.69818486,0,0,0.71065244,1.5799915,-0.92172041)"
         d="m 31.625,16.9375 c 0,7.973611 -6.463889,14.4375 -14.4375,14.4375 C 9.2138889,31.375 2.75,24.911111 2.75,16.9375 2.75,8.9638889 9.2138889,2.5 17.1875,2.5 25.161111,2.5 31.625,8.9638889 31.625,16.9375 z"
         sodipodi:ry="14.4375"
         sodipodi:rx="14.4375"
         sodipodi:cy="16.9375"
         sodipodi:cx="17.1875"
         id="path3031"
         style="fill:#808080"
         sodipodi:type="arc" />
      <path
         sodipodi:type="arc"
         style="fill:#808080"
         id="path3033"
         sodipodi:cx="2.875"
         sodipodi:cy="35"
         sodipodi:rx="5.125"
         sodipodi:ry="5.125"
         d="m 8,35 c 0,2.830459 -2.2945407,5.125 -5.125,5.125 -2.83045934,0 -5.125,-2.294541 -5.125,-5.125 0,-2.830459 2.29454066,-5.125 5.125,-5.125 C 5.7054593,29.875 8,32.169541 8,35 z"
         transform="matrix(1.2560976,0,0,1.2560976,7.95122,-25.525915)" />
      <path
         transform="matrix(1.3170732,0,0,1.3170732,16.463414,-36.097561)"
         d="m 8,35 c 0,2.830459 -2.2945407,5.125 -5.125,5.125 -2.83045934,0 -5.125,-2.294541 -5.125,-5.125 0,-2.830459 2.29454066,-5.125 5.125,-5.125 C 5.7054593,29.875 8,32.169541 8,35 z"
         sodipodi:ry="5.125"
         sodipodi:rx="5.125"
         sodipodi:cy="35"
         sodipodi:cx="2.875"
         id="path3035"
         style="fill:#808080"
         sodipodi:type="arc" />
    </g>
    <g
       id="g3042"
       transform="matrix(1.1861702,0,0,1.1861702,-8.6462766,-7.7712769)">
      <path
         sodipodi:type="arc"
         style="fill:#333333"
         id="path2995"
         sodipodi:cx="17.1875"
         sodipodi:cy="16.9375"
         sodipodi:rx="14.4375"
         sodipodi:ry="14.4375"
         d="m 31.625,16.9375 c 0,7.973611 -6.463889,14.4375 -14.4375,14.4375 C 9.2138889,31.375 2.75,24.911111 2.75,16.9375 2.75,8.9638889 9.2138889,2.5 17.1875,2.5 25.161111,2.5 31.625,8.9638889 31.625,16.9375 z"
         transform="matrix(0.69818486,0,0,0.71065244,5.5799915,5.2032796)" />
      <path
         transform="matrix(1.2560976,0,0,1.2560976,11.95122,-19.400915)"
         d="m 8,35 c 0,2.830459 -2.2945407,5.125 -5.125,5.125 -2.83045934,0 -5.125,-2.294541 -5.125,-5.125 0,-2.830459 2.29454066,-5.125 5.125,-5.125 C 5.7054593,29.875 8,32.169541 8,35 z"
         sodipodi:ry="5.125"
         sodipodi:rx="5.125"
         sodipodi:cy="35"
         sodipodi:cx="2.875"
         id="path3027"
         style="fill:#333333"
         sodipodi:type="arc" />
      <path
         sodipodi:type="arc"
         style="fill:#333333"
         id="path3029"
         sodipodi:cx="2.875"
         sodipodi:cy="35"
         sodipodi:rx="5.125"
         sodipodi:ry="5.125"
         d="m 8,35 c 0,2.830459 -2.2945407,5.125 -5.125,5.125 -2.83045934,0 -5.125,-2.294541 -5.125,-5.125 0,-2.830459 2.29454066,-5.125 5.125,-5.125 C 5.7054593,29.875 8,32.169541 8,35 z"
         transform="matrix(1.3170732,0,0,1.3170732,20.463414,-29.972561)" />
    </g>
  </g>
</svg>
